<?xml version="1.0" encoding="UTF-8"?><svg id="Layer_1" xmlns="http://www.w3.org/2000/svg" viewBox="0 0 758.25 136.68"><path d="M71.68,17.72c30.52,0,55.41,25.49,55.41,55.81s-24.89,55.07-55.41,55.07-55.41-25.03-55.41-55.36S41.16,17.72,71.68,17.72Z" style="fill:#3e4e5c;"/><path d="M71.68,30.81c23.32,0,42.32,19.47,42.32,42.64s-19,42.05-42.32,42.05-42.32-19.12-42.32-42.28S48.37,30.81,71.68,30.81Z" style="fill:#f0f2f2;"/><path d="M67.14,26.89v-8.52h9.11v8.52c5.44-1.88,9.37-6.98,9.37-13.04,0-7.65-6.24-13.85-13.94-13.85s-13.93,6.21-13.93,13.85c0,6.05,3.94,11.15,9.38,13.04Z" style="fill:#324d5b;"/><path d="M22.54,19.52l-4.4,4.42c-2.43,2.44-2.43,6.4,0,8.84l1.46,1.48c2.43,2.44,6.37,2.44,8.8,0l4.4-4.42c2.43-2.44,2.43-6.39,0-8.84l-1.46-1.47c-2.43-2.44-6.37-2.44-8.8,0Z" style="fill:#3e4e5c;"/><path d="M94.77,68.57h-18.47v-23.09c0-2.55-2.06-4.62-4.62-4.62s-4.62,2.07-4.62,4.62v27.7c0,2.55,2.06,4.62,4.62,4.62h23.09c2.55,0,4.62-2.06,4.62-4.62s-2.06-4.62-4.62-4.62Z" style="fill:#208b96;"/><g><path d="M188.38,45.55c0-2.19,1.68-3.96,3.88-3.96s3.96,1.77,3.96,3.96v34.54c0,12.64-9.77,20.81-21.23,20.81s-21.23-8.17-21.23-20.81V45.55c0-2.19,1.69-3.96,3.88-3.96s3.96,1.77,3.96,3.96v34.54c0,8,6.23,13.23,13.39,13.23s13.4-5.22,13.4-13.23V45.55Z" style="fill:#324d5b;"/><path d="M216.43,115.56c0,2.11-1.69,3.88-3.88,3.88s-3.79-1.77-3.79-3.88v-51.39c0-2.11,1.68-3.88,3.79-3.88s3.88,1.77,3.88,3.88v2.7c2.61-4.46,8.26-6.99,13.73-6.99,10.78,0,19.71,8.17,19.71,20.64s-8.93,20.39-19.71,20.39c-5.48,0-11.12-2.19-13.73-6.74v21.4Zm12.97-22.16c7.08,0,12.72-4.97,12.72-12.81s-5.64-13.23-12.72-13.23-12.89,4.89-12.89,13.23,6.57,12.81,12.89,12.81Z" style="fill:#324d5b;"/><path d="M257.87,67.21c-1.77,0-3.29-1.43-3.29-3.29s1.52-3.2,3.29-3.2h4.21v-11.37c0-2.11,1.68-3.88,3.79-3.88s3.88,1.77,3.88,3.88v11.37h5.56c1.77,0,3.29,1.43,3.29,3.29s-1.52,3.2-3.29,3.2h-5.56v29.4c0,2.11-1.68,3.88-3.88,3.88s-3.79-1.77-3.79-3.88v-29.4h-4.21Z" style="fill:#324d5b;"/><path d="M289.63,41.34c2.95,0,5.31,2.11,5.31,4.97s-2.36,4.97-5.31,4.97-5.31-2.11-5.31-4.97,2.44-4.97,5.31-4.97Zm3.88,22.83c0-2.11-1.69-3.88-3.88-3.88s-3.79,1.77-3.79,3.88v32.43c0,2.11,1.69,3.88,3.79,3.88s3.88-1.77,3.88-3.88v-32.43Z" style="fill:#324d5b;"/><path d="M305.64,64.17c0-2.11,1.69-3.88,3.79-3.88s3.88,1.77,3.88,3.88v2.44c2.11-4.38,7.67-6.49,10.87-6.74,1.52-.08,2.95,0,4.3,.25,4.97,.76,8.42,3.54,10.28,7.83,3.62-6.99,9.77-8.09,13.65-8.09,9.86,0,15.16,6.4,15.16,17.44v19.29c0,2.11-1.69,3.88-3.88,3.88s-3.79-1.77-3.79-3.88v-18.79c0-6.49-3.37-10.45-9.01-10.45-6.49-.08-10.45,4.89-10.45,11.46v17.78c0,2.11-1.69,3.88-3.88,3.88s-3.79-1.77-3.79-3.88v-18.87c0-6.49-3.37-10.53-8.51-10.53-5.48,0-10.95,3.37-10.95,11.63v17.78c0,2.11-1.69,3.88-3.88,3.88s-3.79-1.77-3.79-3.88v-32.43Z" style="fill:#324d5b;"/><path d="M413.72,83.3h-28.98c.93,6.57,6.07,10.7,12.72,10.7,4.72,0,7.33-1.18,10.03-4.13,1.43-1.6,3.62-2.11,5.14-1.01,1.52,1.18,1.85,3.45,.67,4.8-3.79,4.89-9.69,7.25-16.09,7.25-11.2,0-20.13-8.17-20.13-20.64s8.93-20.39,20.13-20.39,19.54,7.92,19.54,20.39c0,1.77-1.43,3.03-3.03,3.03Zm-4.55-5.98c-.93-6.57-5.64-10.53-11.96-10.53s-11.54,3.96-12.47,10.53h24.43Z" style="fill:#324d5b;"/><path d="M474.96,41.34c7.58,0,14.32,2.7,19.29,7.24,1.52,1.35,1.77,3.79,.42,5.48-1.52,1.69-3.96,1.77-5.56,.42-3.79-3.37-8.59-5.56-14.15-5.56-12.13,0-21.57,9.94-21.57,22.24s9.43,22.16,21.57,22.16c5.56,0,10.36-2.19,14.15-5.56,1.6-1.35,4.04-1.26,5.56,.42,1.35,1.69,1.09,4.13-.42,5.48-4.97,4.55-11.71,7.25-19.29,7.25-16.43,0-29.4-13.31-29.4-29.82s12.97-29.74,29.4-29.74Z" style="fill:#324d5b;"/><path d="M540.92,96.61c0,2.11-1.69,3.88-3.88,3.88s-3.79-1.77-3.79-3.88v-18.79c0-6.49-3.88-10.45-9.27-10.45s-11.96,3.03-11.96,11.46v17.78c0,2.11-1.69,3.88-3.88,3.88s-3.79-1.77-3.79-3.88V42.77c0-2.11,1.69-3.88,3.79-3.88s3.88,1.77,3.88,3.88v23.84c2.36-4.72,8.68-6.74,12.97-6.74,9.86,0,16.01,6.4,15.92,17.44v19.29Z" style="fill:#324d5b;"/><path d="M587.09,83.3h-28.98c.93,6.57,6.07,10.7,12.72,10.7,4.72,0,7.33-1.18,10.03-4.13,1.43-1.6,3.62-2.11,5.14-1.01,1.52,1.18,1.85,3.45,.67,4.8-3.79,4.89-9.69,7.25-16.09,7.25-11.21,0-20.13-8.17-20.13-20.64s8.93-20.39,20.13-20.39,19.54,7.92,19.54,20.39c0,1.77-1.43,3.03-3.03,3.03Zm-4.55-5.98c-.93-6.57-5.64-10.53-11.96-10.53s-11.54,3.96-12.47,10.53h24.43Z" style="fill:#324d5b;"/><path d="M617.58,93.49c2.78,0,5.39-.84,7.5-2.36,1.85-1.18,3.96-1.26,5.39,.34s1.26,4.3-.42,5.48c-3.46,2.53-7.75,3.96-12.47,3.96-11.21,0-20.81-8.17-20.81-20.64,.08-12.3,9.69-20.39,20.81-20.39,4.72,0,8.93,1.52,12.47,3.96,1.68,1.18,1.85,3.88,.42,5.48-1.26,1.35-3.62,1.6-5.39,.34-2.11-1.52-4.72-2.36-7.5-2.36-7.08,0-13.31,5.31-13.31,13.23,.17,7.75,6.32,12.97,13.31,12.97Z" style="fill:#324d5b;"/><path d="M655.49,77.82l15.75,16.34c1.35,1.6,1.35,3.96-.17,5.22-1.6,1.6-3.96,1.35-5.39,0l-17.19-18.53v15.75c0,2.11-1.69,3.88-3.88,3.88s-3.79-1.77-3.79-3.88V42.77c0-2.11,1.69-3.88,3.79-3.88s3.88,1.77,3.88,3.88v31.68l12.89-13.06c1.43-1.43,3.79-1.43,5.22-.08,1.52,1.6,1.43,3.96,0,5.39l-11.12,11.12Z" style="fill:#324d5b;"/><path d="M713.62,83.3h-28.98c.93,6.57,6.07,10.7,12.72,10.7,4.72,0,7.33-1.18,10.03-4.13,1.43-1.6,3.62-2.11,5.14-1.01,1.52,1.18,1.85,3.45,.67,4.8-3.79,4.89-9.69,7.25-16.09,7.25-11.21,0-20.13-8.17-20.13-20.64s8.93-20.39,20.13-20.39,19.54,7.92,19.54,20.39c0,1.77-1.43,3.03-3.03,3.03Zm-4.55-5.98c-.93-6.57-5.64-10.53-11.96-10.53s-11.54,3.96-12.47,10.53h24.43Z" style="fill:#324d5b;"/><path d="M744.11,67.21c-7.58,0-10.78,8.09-10.78,18.53v10.87c0,2.11-1.68,3.88-3.88,3.88s-3.79-1.77-3.79-3.88v-32.43c0-2.11,1.69-3.88,3.79-3.88s3.88,1.77,3.88,3.88v5.39c2.02-6.91,5.81-9.69,10.95-9.69,2.86,0,7.58,.59,6.91,4.72-.42,2.44-2.61,2.95-5.31,2.7-.59-.08-1.26-.08-1.77-.08Z" style="fill:#324d5b;"/></g></svg>